<svg width="24" height="20" viewBox="0 0 24 20" fill="none" xmlns="http://www.w3.org/2000/svg">
<path d="M23.9924 9.6107C23.9314 9.30317 23.4725 9.15658 23.2053 9.17383C23.0368 9.18532 22.8713 9.19395 22.7028 9.20544C22.8045 9.13359 22.8742 9.03299 22.8684 8.90366C22.8568 8.62774 22.5082 8.43517 22.2613 8.41792C22.2003 8.41505 22.1393 8.41217 22.0783 8.40643C20.719 8.31445 19.3597 8.26272 18.0004 8.24547C18.2124 8.22535 18.4244 8.20811 18.6336 8.18799C18.8979 8.165 19.2551 8.03566 19.1912 7.708C19.1302 7.39185 18.6742 7.26251 18.4041 7.27113C17.0854 7.31137 15.7668 7.37173 14.4481 7.44071C15.8626 5.47478 17.1377 3.40538 18.2502 1.25263C18.5464 0.683542 17.3643 0.473728 17.0622 0.824376C16.763 1.17215 16.4639 1.51992 16.1647 1.8677C15.9062 1.83608 15.6361 1.8792 15.5112 2.02003C14.3116 3.39388 13.112 4.76773 11.9212 6.15021C11.895 5.83692 11.866 5.52364 11.8311 5.21035C11.7701 4.62977 11.6685 4.04057 11.5871 3.44562C11.5813 2.58049 11.5755 1.71537 11.5697 0.850244C11.5668 0.436364 10.8232 0.764019 10.7681 1.03994C10.739 1.19227 10.7187 1.34173 10.7042 1.49406C10.6606 1.26412 10.6199 1.03419 10.5735 0.807132C10.5705 0.798509 10.5676 0.792761 10.5676 0.784138C10.5618 0.591569 10.5531 0.396126 10.5473 0.203557C10.5357 -0.204575 9.73113 0.102961 9.74275 0.476602C9.75437 0.873237 9.76889 1.26987 9.78051 1.66363C9.62076 1.68663 9.4523 1.80447 9.48715 1.98267C9.5162 2.12637 9.65562 2.20398 9.80084 2.23847C9.85312 3.84512 9.91702 5.45178 9.98673 7.05557C9.44649 6.4405 8.90915 5.82543 8.3689 5.21323C7.43364 4.14691 6.49838 3.08347 5.56311 2.01716C5.51374 1.95967 5.44693 1.91943 5.37142 1.89357C4.81084 1.23251 4.20379 0.614562 3.5067 0.08859C3.16106 -0.170085 2.08638 0.171941 2.46978 0.672046C3.11168 1.50843 3.75359 2.34481 4.39839 3.18407C4.40711 3.21856 4.42163 3.25592 4.44487 3.29041C5.40337 4.89132 6.449 6.43475 7.56725 7.92644C5.62701 8.10176 3.69259 8.30296 1.75816 8.53864C1.49676 8.57025 1.13659 8.68522 1.20049 9.01862C1.21501 9.09048 1.25277 9.15658 1.30796 9.21407C1.00298 9.26293 0.695102 9.30892 0.390125 9.36065C0.13743 9.40376 -0.0775066 9.6222 0.027057 9.878C0.134525 10.1395 0.523734 10.2861 0.788047 10.2545C1.45028 10.1798 2.10961 10.1137 2.77185 10.0476C2.77766 10.0677 2.78056 10.0878 2.78928 10.1079C2.90546 10.3925 3.27434 10.4787 3.55027 10.4844C5.1042 10.5276 6.66103 10.5477 8.21787 10.5563C7.5353 11.3898 6.86145 12.2291 6.19921 13.0769C5.3627 14.149 4.54072 15.2326 3.74197 16.3305C3.61998 16.4972 3.62578 16.6438 3.70421 16.7616C3.12039 17.6038 2.59177 18.4804 2.14737 19.403C1.86563 19.9893 3.02745 20.1675 3.33533 19.8312C5.12743 17.8711 6.87016 15.862 8.5606 13.8099C8.79297 13.8386 9.03695 13.8012 9.17927 13.6604C9.54524 13.2954 9.9025 12.9217 10.2569 12.5424C10.344 14.149 10.4369 15.7528 10.5415 17.3595C10.5473 17.4399 10.5822 17.4917 10.6344 17.5233C10.6548 17.9199 10.6751 18.3137 10.6954 18.7103C10.7187 19.1472 11.4303 18.7707 11.4971 18.5206C11.59 18.17 11.6336 17.8136 11.6539 17.4572C11.8456 16.0345 11.9734 14.606 12.0461 13.1747C12.3423 13.4822 12.6415 13.7869 12.9436 14.0858C13.8672 14.994 14.8257 15.8678 15.8132 16.7099C16.0195 16.8852 16.4871 16.8076 16.7485 16.6179C16.9228 16.7875 17.0941 16.9571 17.2684 17.1266C17.6083 17.4601 18.6916 16.9829 18.3053 16.5432C16.5481 14.5399 14.7908 12.5366 13.0336 10.5362C15.0377 10.5017 17.0419 10.4442 19.046 10.3494C20.5099 10.2804 21.9738 10.1942 23.4348 10.0964C23.702 10.0734 24.0563 9.93548 23.9924 9.6107ZM12.7954 9.61932C12.8593 9.53885 12.9261 9.46125 12.99 9.38077C14.5149 9.32616 16.0427 9.2888 17.5676 9.28305C18.7555 9.2773 19.9464 9.2888 21.1344 9.30891C18.3576 9.46699 15.578 9.57046 12.7954 9.61932Z" fill="#9333EA"/>
</svg>
