<?xml version="1.0" standalone="no"?>
<!DOCTYPE svg PUBLIC "-//W3C//DTD SVG 1.1//EN" "http://www.w3.org/Graphics/SVG/1.1/DTD/svg11.dtd">
<svg xmlns="http://www.w3.org/2000/svg" id="b" data-name="Layer_2" viewBox="0 0 393.53 398.44" width="393.5299987792969" height="398.44000244140625">
  <defs>
    <style>
      .d {
        fill: #1d1d1b;
      }

      .d, .e, .f, .g, .h {
        stroke: #1d1d1b;
      }

      .d, .e, .g, .h, .i, .j {
        stroke-miterlimit: 10;
      }

      .d, .e, .h {
        stroke-width: 1.7px;
      }

      .k, .e, .f, .g, .i {
        fill: #fff;
      }

      .l {
        fill: #171d1c;
      }

      .m {
        fill: #10221e;
      }

      .f {
        stroke-linejoin: round;
        stroke-width: 10.21px;
      }

      .g, .i {
        stroke-width: 5.4px;
      }

      .h {
        fill: #100b00;
      }

      .i {
        stroke: #100b00;
      }

      .j {
        fill: #ff9914;
        stroke: #fff;
        stroke-width: 3px;
      }
    </style>
  </defs>
  <g id="c" data-name="Layer_1">
    <g>
      <path class="j" d="M130.76,396.94c-22.44,0-43.54-5.56-61.04-16.09-18.32-11.02-31.33-26.68-37.63-45.28-7.52-22.22-4.64-47.06,8.11-69.95l.28-.5-.1-.57c-3.49-20.6-1.8-43.42,4.88-65.97l.41-1.39-1.33-.58c-7.72-3.34-15.4-8.24-21.22-12.13C7.06,173.91.24,159.21,1.69,138.22c.71-10.43,4.6-20.28,11.23-28.49,10.02-12.42,20.36-21.21,31.62-26.88,16.29-8.2,35.03-12.36,55.72-12.36,10.87,0,22.37,1.16,34.19,3.44l.88.17.62-.64c13.52-14.04,30.11-23.21,49.33-27.26,5.51-1.16,11.25-1.75,17.04-1.75,6.76,0,13.84.8,21.03,2.39,4.68,1.03,9.51,2.51,14.77,4.55l.76.3.69-.43c1.91-1.19,4.03-2.15,6.3-2.86l.32-.1.26-.22c9.88-8.51,18.45-18.18,25.46-28.75l10.85-16.35,9.91,19.43c5.14,10.14,7.21,21.72,5.82,32.62-.2,1.71-.5,3.41-.91,5.16l-.07.29.69,5.07c.84,6.18,1.17,15.36-2,23.94l-.35.93.67.74c1.64,1.81,3.23,3.7,4.73,5.61l.95,1.22,1.27-.88c13.21-9.17,37.5-29.44,51.64-62.15l7.78-18.01,13.18,17.37c6.87,9.08,10.96,20.12,11.5,31.1.1,1.7.11,3.46.03,5.22v.29s1.57,4.86,1.57,4.86c2.64,8.14,4.81,20.16.12,31.24l-.16.38.22,2.35c.09.95.15,1.91.19,2.85v.36c.34,9.81-2.22,18.74-7.17,25.17-.38.5-.8,1.01-1.25,1.51l-.23.26-1.09,3.42c-3.37,10.59-15.9,35.25-59.28,35.47h-1.31s-.28,1.28-.28,1.28c-.83,3.72-1.79,6.93-2.95,9.82-.25.63-.55,1.33-.85,2.03l-.11.25c-5.01,11.47-10.28,20.3-16.56,27.79-1.46,1.75-3.05,3.23-4.71,4.4l-.73.52.04.89c.44,9.95-.11,20.14-1.62,30.26l-.09.63.35.53c7.32,10.96,7.53,28.96.54,46.98-8.13,20.96-23.28,35.04-37.71,35.04-.3,0-.6,0-.9-.02l-.78-.03-.51.58c-18.68,20.96-42.86,37.11-71.87,48.01-16.2,6.09-32.91,9.18-49.67,9.18Z"/>
      <g>
        <path class="f" d="M53.05,265.37c-12.62-58.64,24.17-134.87,78.26-153.21,58.54-19.85,123.33,15.24,144.71,78.38,18.05,53.31,0,147.42-99.12,184.66-57.87,21.74-118.29-.35-133.45-45.14-7.21-21.29-3.03-44.29,9.61-64.7Z"/>
        <g>
          <g>
            <path class="k" d="M242.33,306.94c-.14-6.69,1.27-14.53,4.34-22.45,7.26-18.72,21.05-30.82,30.81-27.03,9.76,3.79,11.78,22.04,4.53,40.76-7.26,18.72-21.05,30.82-30.81,27.03-3.28-1.27-5.69-4.18-7.16-8.2"/>
            <path class="l" d="M257.71,321.24c1.9-.61,3.88-1.72,5.71-3.17,1.85-1.42,3.57-3.16,5.16-5.02,3.18-3.76,5.82-8.12,7.93-12.71,2.11-4.6,3.71-9.47,4.67-14.4.96-4.91,1.27-9.97.55-14.62-.38-2.3-1.01-4.51-2-6.27-.98-1.77-2.24-3-3.67-3.57-1.42-.59-3.14-.6-5.05,0-1.9.61-3.88,1.72-5.71,3.17-3.69,2.89-6.89,6.82-9.53,11.07-2.63,4.27-4.76,8.93-6.33,13.75-.37,1.07-2.15,5.21-3.51,9.31-.7,2.04-1.34,4.06-1.9,5.59-.56,1.53-1.09,2.57-1.68,2.59-.58.01-1.18-1.03-1.63-2.71-.45-1.68-.72-3.98-.74-6.37-.09-4.79.96-9.83,1.37-11.04,1.77-5.44,4.16-10.67,7.19-15.59,3.06-4.89,6.72-9.52,11.54-13.3,2.41-1.88,5.16-3.54,8.41-4.58,1.62-.51,3.39-.84,5.25-.83,1.85,0,3.78.35,5.56,1.09,1.78.73,3.39,1.83,4.7,3.11,1.32,1.28,2.35,2.73,3.18,4.21,1.64,2.97,2.46,6.05,2.96,9.06.92,6.04.49,11.92-.59,17.58-1.1,5.67-2.9,11.13-5.29,16.33-2.4,5.2-5.38,10.18-9.17,14.67-1.91,2.24-4,4.36-6.43,6.24-2.41,1.88-5.16,3.54-8.41,4.58-.73.21-2.62.68-5.2.5-1.28-.12-2.71-.41-4.09-.98-1.38-.56-2.68-1.42-3.74-2.41-2.13-2.01-3.19-4.45-3.55-6.23-.38-1.8-.15-3,.38-3.2h0c.57-.21,1.4.6,2.54,1.64,1.12,1.05,2.59,2.28,4.13,2.89,1.54.64,3.06.65,4.3.44,1.26-.24,2.27-.66,2.69-.79Z"/>
          </g>
          <g>
            <path class="l" d="M254.62,314.12c-.5.26-1.73-.89-2.55-3.23-.86-2.31-1.33-5.66-1.21-9.27.09-3.62.72-7.51,1.69-11.07.95-3.56,2.25-6.8,3.49-9.19,1.27-2.43,3.15-5.47,5.91-8.35,1.4-1.43,2.99-2.84,5.09-3.95,1.06-.55,2.23-1.01,3.71-1.2,1.55-.2,3.08.1,4.33.8.63.35,1.18.79,1.66,1.28.23.25.44.52.65.78.19.26.33.52.48.77.54,1,.81,1.94,1,2.82.33,1.74.27,3.2.13,4.4-.31,2.4-1,3.73-1.57,3.71-.61-.02-1.05-1.42-1.73-3.42-.34-.99-.76-2.15-1.34-3.18-.29-.5-.63-.98-.97-1.3-.19-.17-.3-.24-.43-.29-.13-.05-.26-.09-.4-.09-.26-.02-.51.05-.68.18-.25.13-.72.4-1.17.77-.94.75-1.94,1.87-2.82,3.05-1.78,2.4-3.21,5.05-4.27,7.12-2.18,4.1-5.24,11.06-6.78,17.21-.81,3.07-1.26,5.89-1.46,7.95-.25,2.07-.17,3.42-.73,3.68Z"/>
            <path class="l" d="M261.26,288.12c-.47.08-1.3-1.72-1.84-4.01s-.26-4.27.65-4.42c.12,0,.45-.04,1.01,0,.59.07,1.33.13,2.24.33.47.13.97.27,1.47.44.51.17,1.07.48,1.59.76.53.28,1.04.74,1.53,1.13.45.46.88.96,1.21,1.48.65,1.07.99,2.19,1.08,3.17.1.98.02,1.84-.14,2.54-.31,1.4-.84,2.18-1.12,2.15-.32-.03-.66-.86-1.24-1.89-.53-1.04-1.5-2.18-2.4-2.47-.23-.08-.45-.1-.65-.13-.25.03-.39-.01-.62.04-.23.06-.39.05-.6.12-.22.07-.42.13-.6.17-.39.13-.78.3-1.03.37-.27.1-.48.21-.54.21Z"/>
          </g>
        </g>
        <g>
          <g>
            <path class="k" d="M134.51,292.4c-11.88,3.75-28.93-.46-38.08-9.42-9.15-8.96-6.94-19.26,4.94-23.01,11.88-3.75,28.93.46,38.08,9.42"/>
            <path class="l" d="M116.68,261.59c-4.77-.7-9.7-.59-14.15.71-2.21.67-4.28,1.64-5.91,2.98-1.62,1.34-2.78,3.03-3.13,4.91-.35,1.88.02,3.94.96,5.87.93,1.94,2.39,3.74,4.06,5.36,3.41,3.21,7.71,5.6,12.25,7.24,1.56.54,3.73,1.33,6.2,1.93,2.47.61,5.2,1.12,7.77,1.36,2.57.21,4.96.24,6.72.17,1.76-.06,2.93-.09,3.04.26.1.31-.88,1-2.65,1.69-1.76.69-4.31,1.24-7.14,1.49-2.82.21-5.89.05-8.68-.36-2.79-.4-5.27-1.13-7.01-1.74-5.08-1.85-9.96-4.51-14.04-8.34-2.01-1.94-3.86-4.17-5.15-6.86-1.29-2.66-1.97-5.88-1.36-9.06.59-3.2,2.56-5.96,4.88-7.86,2.34-1.93,5.02-3.13,7.71-3.95,2.7-.84,5.46-1.16,8.2-1.31,2.74-.15,5.47.07,8.15.44,1.83.25,4.35.84,7.01,1.76,2.65.95,5.43,2.27,7.82,3.76,2.38,1.53,4.37,3.21,5.62,4.62,1.25,1.42,1.82,2.47,1.58,2.7-.26.26-1.29-.29-2.83-1.15-1.55-.86-3.67-1.97-6.05-2.97-2.4-.98-5.04-1.83-7.51-2.46-2.47-.6-4.75-.99-6.38-1.21Z"/>
          </g>
          <path class="l" d="M136.02,250.69c-1.38,4.19-3.6,8.04-6.49,11.33-1.12,1.29-2.99,1.41-3.89.31-.89-1.09-.85-2.63.07-3.69,2.43-2.77,4.31-6.05,5.45-9.51.08-.16.17-.54.34-1.06.15-.53.45-1.18.6-1.98.17-.79.47-1.68.55-2.64.07-.48.15-.98.22-1.48.08-.5.06-1.01.09-1.52.03-.52.06-1.03.08-1.53,0-.5-.05-1-.06-1.48-.04-.96-.02-1.88-.14-2.65-.15-1.55-.13-2.66.2-2.78.33-.12.95.77,1.72,2.26.42.73.71,1.66,1.03,2.68.16.51.33,1.04.47,1.59.1.56.19,1.13.29,1.7.08.58.22,1.16.24,1.75.02.59.04,1.17.07,1.74.09,1.15-.08,2.23-.15,3.2-.05.98-.29,1.8-.4,2.45-.14.65-.22,1.12-.31,1.31Z"/>
        </g>
        <g>
          <path class="l" d="M111.43,179.75c-.52.56-2.29-.33-4.9-1.63-2.6-1.28-6.15-2.9-10.03-3.01-3.87-.14-7.31,1.42-9.76,2.82-2.47,1.4-4.02,2.53-4.62,2.1-.59-.4,0-2.5,2.27-4.99,1.14-1.23,2.73-2.54,4.81-3.57,2.08-1.02,4.68-1.7,7.42-1.62,2.75.06,5.25.86,7.26,1.86,2.01,1.03,3.62,2.21,4.79,3.37,2.36,2.29,3.22,4.16,2.75,4.66Z"/>
          <path class="d" d="M95.55,220.77l-11.54-12.99c4.21-11.18,10.52-18.42,15.72-17.11,6.51,1.63,8.8,16.02,5.12,32.13-3.68,16.11-11.93,27.85-18.44,26.21-5.19-1.3-7.7-10.74-6.63-22.69l15.77-5.54Z"/>
        </g>
        <g>
          <path class="l" d="M194.12,194.92c-.43.78-2.69.27-6.01-.45-3.31-.71-7.78-1.55-12.2-.57-4.42.94-7.87,3.67-10.25,5.95-2.4,2.29-3.83,4-4.63,3.68-.78-.29-.71-2.83,1.16-6.29.94-1.72,2.37-3.65,4.44-5.4,1.04-.86,2.23-1.68,3.57-2.37,1.35-.66,2.81-1.24,4.38-1.57,3.13-.71,6.18-.51,8.74.06,2.57.59,4.73,1.48,6.37,2.46,3.31,1.93,4.82,3.8,4.43,4.5Z"/>
          <path class="l" d="M196.71,221.45c-.15.4-.88.58-2.03.59-.58,0-1.26-.04-2.04-.12-.78-.08-1.63-.25-2.6-.28-.96-.07-2-.17-3.09-.31-.55-.1-1.12-.07-1.7-.1-.58-.02-1.18-.05-1.79-.08-2.44-.11-5.07.07-7.77.44-5.37.91-9.86,3.06-12.93,5.12-3.13,2-4.92,3.64-5.66,3.2-.72-.39-.09-3.18,2.78-6.45.69-.84,1.58-1.63,2.54-2.48.49-.41,1.04-.78,1.6-1.18.28-.2.57-.4.86-.6.31-.17.62-.35.93-.53,2.49-1.53,5.59-2.5,8.87-3.13,3.3-.47,6.49-.47,9.27-.02,1.38.26,2.72.43,3.9.8,1.18.38,2.27.75,3.25,1.11.99.33,1.82.8,2.55,1.21.72.41,1.33.8,1.81,1.15.96.7,1.4,1.27,1.25,1.67Z"/>
          <path class="l" d="M207.95,242.59c-.29.31-1.15.11-2.43-.5-.64-.3-1.39-.71-2.22-1.2-.42-.24-.84-.54-1.33-.79-.48-.25-1-.52-1.54-.8-4.16-2.4-10.04-5.35-16.97-7.04-.87-.21-1.72-.42-2.57-.62-.85-.19-1.7-.29-2.52-.45-1.65-.35-3.28-.43-4.82-.64-3.1-.22-5.93-.35-8.32-.26-4.8.05-7.82.44-8.13-.38-.31-.76,2.46-2.71,7.55-3.92,2.53-.67,5.64-1.01,9.12-1.09,1.73.06,3.57.04,5.45.34.94.13,1.9.22,2.86.41.96.22,1.93.44,2.91.66.99.2,1.93.52,2.86.85.92.32,1.84.64,2.73.95,1.74.76,3.38,1.57,4.93,2.34,1.48.91,2.87,1.79,4.15,2.63,1.25.88,2.31,1.85,3.3,2.68.48.43.94.84,1.38,1.22.43.4.77.84,1.11,1.22.67.78,1.22,1.48,1.64,2.08.84,1.19,1.15,1.99.86,2.3Z"/>
          <path class="l" d="M188.64,249.22c-.38.19-1.01-.1-1.8-.75-.82-.64-1.68-1.72-2.94-2.86-2.32-2.42-5.6-5.47-9.82-7.96-2.07-1.32-4.22-2.25-6.19-3.14-2-.81-3.85-1.49-5.45-2.02-3.2-1.08-5.3-1.72-5.34-2.58-.06-.83,2.25-1.76,6.03-1.71,1.89.01,4.13.31,6.57.94,2.41.71,5.06,1.67,7.55,3.24,1.29.7,2.4,1.63,3.51,2.46,1.09.86,1.99,1.86,2.89,2.74.85.94,1.55,1.93,2.22,2.82.35.44.61.91.86,1.37.25.46.48.89.71,1.31.94,1.64,1.28,3.17,1.49,4.22.18,1.06.09,1.72-.29,1.91Z"/>
        </g>
        <path class="i" d="M252.82,100.43c-.07,1.09.68,2.04,1.65,2.11,11.67.8,20.7-1.34,26.95-6.33-.42,5.02-2.06,13.64-8.17,19.17-.95.86-2.03,1.63-3.13,2.28-.05.05-.11.08-.16.1-6.34,3.66-15.12,3.94-26.14.85-.96-.21-1.9.49-2.13,1.54-.17,1,.33,1.96,1.2,2.27,3.87,1.11,7.79,1.82,11.78,2.15,4.74.32,8.97-.15,12.69-1.41-4.79,9.08-20.49,28.24-64.58,15.71,1-1.87,1.75-3.89,2.28-5.99,2.71-10.82-3.06-21.88-12.9-24.71-.98-.29-1.96-.47-2.93-.54-7.06-.48-13.73,4.56-15.69,12.34-.89,3.62-.33,7.47,1.5,10.57,2.77,4.76,7.06,7.13,11.47,6.37,4.04-.73,7.36-3.99,8.45-8.32.25-1.05-.34-2.13-1.3-2.39-.93-.26-1.89.38-2.17,1.4-.7,2.81-2.87,4.94-5.51,5.4-3.01.55-5.89-1.13-7.9-4.61-1.29-2.16-1.69-4.86-1.08-7.4,1.69-6.76,8.06-10.82,14.21-9.05,7.93,2.31,12.57,11.22,10.39,19.93-.63,2.48-1.66,4.85-3.06,6.95-.05.05-.11.13-.14.21-4.74,6.83-12.73,9.88-20.24,7.74-12.93-3.72-20.51-18.27-16.95-32.48,1.73-6.9,5.42-12.65,11.06-17.24,5.64-4.58,13.19-8,22.63-10.19,6.43-1.5,11.92-3.26,16.83-5.36,16.82-7.16,47.9-24.09,70.22-57.71l.99,1.95c4.11,8.08,5.78,17.32,4.65,26.03-.25,2.14-.7,4.25-1.3,6.31-.03.11-.07.22-.1.33-3.26,10.7-10.88,17.22-22.75,19.41-.99.19-1.64,1.21-1.49,2.28.16,1.05,1.08,1.79,2.04,1.6,6.3-1.17,11.19-3.42,15-6.33,3.78-2.88,6.46-6.44,8.35-10.15.85,6.26,1.11,16.38-4.21,23.77-5.21,7.28-14.77,10.5-28.38,9.57-.97-.07-1.84.77-1.92,1.83Z"/>
        <g>
          <path class="d" d="M280.86,200.01c-.57-1.26-1.34-2.44-2.12-3.55-2.73-3.87-5.93-7.34-9.37-10.57-3.62-3.39-7.29-6.75-10.94-10.1-1.87-1.7-3.74-3.41-5.86-4.78-.61-.39-1.26-.74-1.91-1.06-.84-.42-1.63-.25-2.17.48-.59.74-.12,1.42.41,1.93,1.97,1.91,3.94,3.87,6.04,5.65,8.9,7.58,17.11,15.74,23.89,25.3.47.65.84,1.42,1.82,1.66,1.31-1.6.95-3.32.22-4.96Z"/>
          <path class="d" d="M280.86,200.01c-.57-1.26-1.34-2.44-2.12-3.55-2.73-3.87-5.93-7.34-9.37-10.57-3.62-3.39-7.29-6.75-10.94-10.1-1.87-1.7-3.74-3.41-5.86-4.78-.61-.39-1.26-.74-1.91-1.06-.84-.42-1.63-.25-2.17.48-.59.74-.12,1.42.41,1.93,1.97,1.91,3.94,3.87,6.04,5.65,8.9,7.58,17.11,15.74,23.89,25.3.47.65.84,1.42,1.82,1.66,1.31-1.6.95-3.32.22-4.96Z"/>
          <path class="e" d="M280.65,204.97c-.97-.24-1.35-1.01-1.82-1.66-6.77-9.56-14.99-17.72-23.89-25.3-2.1-1.78-4.08-3.74-6.04-5.65-.54-.51-1-1.19-.41-1.93.54-.73,1.33-.9,2.17-.48.65.32,1.3.67,1.91,1.06,2.12,1.37,3.99,3.08,5.86,4.78,3.65,3.35,7.32,6.72,10.94,10.1,3.44,3.22,6.64,6.69,9.37,10.57.78,1.11,1.56,2.29,2.12,3.55.73,1.64,1.09,3.36-.22,4.96Z"/>
          <path class="h" d="M310.82,152.53c-.26-.31-.28-.63-.08-.96-.15-1.87-.31-3.72-.49-5.59-.83-8.54-2.84-16.81-6.22-24.72-5.52-13.03-13.82-24.02-24.72-33.09-2.31-1.93-4.66-3.78-7.13-5.52-.7-.5-1.04-.96-.41-1.77.36-.44.57-.99.83-1.49,2.73-5.65,2.18-11.04-1.58-16.03-6.45-8.58-21.57-8.87-27.66-1.87-1.35,1.54-2.52,1.43-4.22.68-5.75-2.47-11.63-4.61-17.79-5.96-11.04-2.44-22.17-2.96-33.23-.62-18.61,3.91-34.21,13.17-46.68,27.55-1.17,1.33-2.18,1.74-3.95,1.19-27.68-6.04-59.57-7.02-87.3,6.93-11.17,5.63-20.16,14.31-27.87,23.86-5.09,6.3-8.15,14-8.71,22.07-1.15,16.65,4.04,27.82,16.38,35.93,8.13,5.44,20.26,13.11,29.93,14.27,4.77.57,9.12-7.04,9.41-11.84.05-.88-.08-1.49-.53-1.59-.62-.13-2.1,2.21-2.47,2.63.18-.54.44-1.04.68-1.54,5.72-12.51,19.43-19.26,32.66-23.11,58.7-17.1,109.33,7.91,154.7,44.16,4.43,3.52,9.11,6.72,13.92,9.73,8.09,5.05,14.34,13.92,21.86,4.95,6.32-7.53,10.91-16.02,14.82-24.99.29-.66.58-1.32.84-1.99,1.93-4.81,2.89-10.09,3.74-15.19.46-2.72.81-5.45,1.03-8.2.11-1.42,1.13-6.81.22-7.89ZM257.39,131.71c3.88-12.57,5.39-25.35,2.79-38.41-.28-1.33-.52-2.68-.73-4.06-.08-.6-.42-1.38.36-1.71.8-.36,1.56-.24,2.19.49.83.94,1.33,2.01,1.72,3.18,1.07,3.36,1.22,6.85,1.71,10.3,1.15,11.17-.73,22.01-3.98,32.65-2.16,7.07-5,13.86-8.14,20.56-.37.8-.8,1.59-1.3,2.32-.5.76-1.15,1.43-2.23,1.1-.81-.28-1.64-1.66-1.46-2.58.18-.86.44-1.75.86-2.5,3.62-6.77,5.96-14.05,8.2-21.34ZM235.47,146.67c-23.08-25.71-51.23-43.94-83.03-57.45,4.24-5.8,10.41-9.84,16.63-13.22,6.79-3.67,13.94-6.76,21.51-8.43,4.74-1.07,9.6-1.54,14.46-1.41,7.76.24,15.3,1.92,22.68,4.45,5.33,1.84,10.38,4.26,15.53,6.48,1.28.57,1.8,1.56,2.23,2.73,1.69,4.68,2.71,9.53,3.13,14.49,1.46,18.39-3.02,35.38-12.33,51.21-.19.34-.47.65-.8,1.15ZM280.65,204.96c-.97-.24-1.35-1.01-1.82-1.66-6.77-9.57-14.99-17.72-23.89-25.31-2.1-1.79-4.08-3.74-6.04-5.65-.54-.5-1.01-1.19-.41-1.92.54-.73,1.33-.91,2.18-.49.65.32,1.3.68,1.9,1.07,2.13,1.36,4,3.07,5.86,4.78,3.65,3.35,7.31,6.72,10.93,10.1,3.44,3.22,6.64,6.69,9.37,10.57.78,1.1,1.56,2.27,2.13,3.54.73,1.64,1.09,3.36-.21,4.95Z"/>
          <path class="e" d="M248.58,94.29c1.48,18.39-3.01,35.39-12.32,51.22-.2.34-.47.65-.8,1.15-23.08-25.7-51.22-43.93-83.03-57.45,4.23-5.79,10.41-9.84,16.64-13.22,6.79-3.67,13.92-6.75,21.49-8.43,4.75-1.06,9.61-1.54,14.46-1.4,7.76.23,15.31,1.91,22.68,4.44,5.32,1.83,10.37,4.26,15.52,6.49,1.29.56,1.81,1.56,2.23,2.72,1.68,4.68,2.72,9.53,3.13,14.49Z"/>
          <path class="e" d="M265.43,101.51c1.15,11.17-.73,22-3.96,32.64-2.17,7.06-5.01,13.86-8.15,20.55-.37.8-.8,1.59-1.29,2.34-.51.76-1.16,1.42-2.22,1.09-.83-.27-1.65-1.64-1.47-2.57.17-.87.44-1.76.85-2.51,3.64-6.77,5.97-14.04,8.21-21.33,3.88-12.58,5.39-25.36,2.8-38.42-.28-1.33-.53-2.69-.74-4.06-.09-.61-.41-1.39.36-1.72.79-.36,1.55-.25,2.19.48.84.94,1.34,2.03,1.72,3.19,1.08,3.36,1.23,6.86,1.7,10.31Z"/>
          <path class="e" d="M228.82,154.67c-2.44-1.39-11.66-8.27-14.88-10.44-42.27-28.56-101.65-64.12-154.02-41.77-18.17,7.13-34.58,24.68-30.16,44.76,1.52,6.73,5.6,12.39,11.34,16.7,3.65,2.82,8.31,5.36,11.96,7.25,1.68,1.05,10.09,4.64,6.29,5.46-4.2.74-14.19-2.33-19.19-5.27-11.04-5.7-18.39-17.04-17.81-29.52.73-21.25,18.14-39.6,37.92-46.21,56.52-18.56,113.99,8.13,180.29,65.82l-11.75-6.79Z"/>
        </g>
        <path class="g" d="M351.02,118.21c.12,1.09,1.03,1.89,1.99,1.78,11.63-1.28,20.13-4.98,25.41-11,.48,5.02.39,13.79-4.65,20.32-.79,1.02-1.71,1.96-2.67,2.8-.04.06-.09.09-.14.13-5.59,4.73-14.18,6.55-25.58,5.47-.98-.03-1.79.82-1.82,1.89,0,1.01.67,1.87,1.58,2.02,4,.4,7.99.42,11.98.03,4.72-.52,8.8-1.73,12.24-3.63-3.11,9.78-15.17,31.42-60.78,26.89.65-2.02,1.03-4.14,1.18-6.3.75-11.13-6.89-20.99-17.07-22.04-1.01-.11-2.02-.12-2.98,0-7.03.77-12.7,6.92-13.26,14.93-.23,3.72,1,7.41,3.35,10.14,3.57,4.2,8.22,5.77,12.41,4.24,3.85-1.44,6.54-5.23,6.85-9.68.06-1.08-.71-2.03-1.7-2.12-.96-.09-1.8.71-1.89,1.76-.19,2.89-1.95,5.37-4.47,6.3-2.86,1.08-5.99-.07-8.59-3.14-1.65-1.9-2.52-4.48-2.37-7.09.47-6.95,6.02-12.07,12.39-11.42,8.22.87,14.36,8.81,13.75,17.78-.18,2.56-.78,5.07-1.78,7.38-.04.06-.09.15-.1.24-3.46,7.56-10.78,11.98-18.55,11.2-13.38-1.37-23.42-14.35-22.44-28.97.48-7.1,3.1-13.41,7.83-18.92,4.74-5.51,11.57-10.2,20.47-14.03,6.06-2.61,11.16-5.31,15.61-8.26,15.29-10.02,42.88-32.19,58.9-69.22l1.32,1.74c5.47,7.23,8.75,16.02,9.18,24.79.13,2.15.06,4.3-.16,6.44-.01.11-.03.23-.04.34-1.32,11.1-7.66,18.87-18.96,23.13-.94.36-1.4,1.48-1.06,2.51.34,1,1.38,1.57,2.29,1.21,5.99-2.27,10.41-5.34,13.64-8.88,3.21-3.51,5.21-7.48,6.42-11.47,1.95,6.01,3.99,15.93.06,24.14-3.84,8.09-12.68,12.95-26.24,14.44-.96.11-1.68,1.09-1.56,2.14Z"/>
        <path class="m" d="M76.94,314.19c-3.69-2.82-7.09-5.91-9.24-10.14-1.13-2.23-1.92-4.53-1.82-7.08.06-1.57.51-2.99,1.44-4.26.58-.79,1.31-1.36,2.28-1.56,1.43-.29,2.33.58,1.82,1.96-1.75,4.75.24,8.5,3.12,11.97,3.43,4.12,8.01,6.59,12.85,8.67,7.43,3.19,15.25,4.65,23.25,5.07,11.19.59,22.34.06,33.3-2.49,13.72-3.19,26.87-7.8,38.53-15.96,3.45-2.42,6.68-5.1,9.51-8.25,1.93-2.15,2.63-3.4,3.16-5.7-.65-.33-1.37-.03-2.04-.09-1.03-.09-1.55-.65-1.71-1.64-.3-1.89.86-3.46,2.84-3.58,3.18-.19,6.02.83,8.46,2.82,3.73,3.03,5.95,6.89,5.97,11.8,0,.72.33,1.77-.72,2.06-1.05.29-1.83-.37-2.29-1.25-.84-1.6-1.61-3.24-2.38-4.88-.25-.53-.43-1.08-.99-1.34-.38.08-.4.37-.39.66.13,7.22-1.1,14.29-2.14,21.4-1.72,11.73-6.93,21.87-13.84,31.27-7.09,9.65-16.63,15.39-28.4,17.25-7.3,1.16-14.59,1.1-21.61-1.81-7.62-3.16-13.22-8.51-17.14-15.68-2.19-4.01-3.8-8.29-5.17-12.65-.3-.96-.51-1.97-1.2-2.77-.23-.68-.51-1.36-.68-2.06-.28-1.17-.99-1.62-2.18-1.67-1.81-.07-3.61-.3-5.42-.48-9.04-.9-17.38-3.82-25.08-8.62-.64-.4-1.19-1.09-2.09-.98ZM196.76,294.84c-1.19,1.14-2.31,2.16-3.37,3.23-7.02,7.08-15.61,11.8-24.54,15.86-3.85,1.75-7.95,3.06-12.05,4.26-7.18,2.1-14.43,3.77-21.86,4.72-5.11.65-10.24,1.03-15.4.99-2.31-.02-2.62.4-1.77,2.53.94,2.35,1.96,4.67,3.04,6.96,1.09,2.31,2.87,3.76,5.51,4.04,1.44.15,2.88.36,4.33.34,9.27-.15,18.32-1.71,27.2-4.3,7.61-2.21,14.87-5.33,21.93-8.9,4.72-2.39,9.34-4.97,13.63-8.1.88-.64,1.42-1.34,1.55-2.46.67-5.83,1.39-11.66,2.07-17.49.06-.47.25-.98-.28-1.68ZM165.1,351.81c-4.23-2.73-8.85-2.18-13.44-1.28-2.48.49-3.79,2.28-3.72,4.4.03.96.33,1.47,1.43,1.36,2.16-.22,4.34-.29,6.5-.55,2.59-.31,5.19-.6,7.66-1.5,5.89-2.15,10.89-5.67,15.33-10.04.56-.55,1.24-1.03,1.33-1.96-2.33-1.99-4.88-2.09-7.42-.57-3.38,2.02-6.03,4.71-6.97,8.73-.11.49-.26.98-.7,1.41Z"/>
      </g>
    </g>
  </g>
</svg>